<svg width="720" height="520" viewBox="0 0 720 520" fill="none" xmlns="http://www.w3.org/2000/svg">
  <defs>
    <linearGradient id="bg" x1="84" y1="54" x2="638" y2="468" gradientUnits="userSpaceOnUse">
      <stop stop-color="#10233B"/>
      <stop offset="1" stop-color="#07111F"/>
    </linearGradient>
    <linearGradient id="card" x1="128" y1="126" x2="592" y2="392" gradientUnits="userSpaceOnUse">
      <stop stop-color="#12385C"/>
      <stop offset="1" stop-color="#0A1728"/>
    </linearGradient>
    <linearGradient id="accent" x1="170" y1="114" x2="522" y2="350" gradientUnits="userSpaceOnUse">
      <stop stop-color="#18C5F4"/>
      <stop offset="1" stop-color="#0EA5E9"/>
    </linearGradient>
  </defs>
  <rect width="720" height="520" rx="40" fill="url(#bg)"/>
  <circle cx="566" cy="118" r="84" fill="#123253" opacity="0.6"/>
  <circle cx="162" cy="412" r="108" fill="#0E2842" opacity="0.7"/>
  <rect x="100" y="94" width="520" height="332" rx="34" fill="url(#card)" stroke="rgba(148,239,255,0.28)"/>
  <rect x="132" y="126" width="208" height="268" rx="28" fill="#0B1524" stroke="rgba(255,255,255,0.08)"/>
  <rect x="364" y="126" width="224" height="268" rx="28" fill="#08111E" stroke="rgba(255,255,255,0.08)"/>

  <circle cx="236" cy="188" r="44" fill="#E7C2A7"/>
  <path d="M192 176C192 151.699 211.699 132 236 132C260.301 132 280 151.699 280 176V186H192V176Z" fill="#08111E"/>
  <path d="M188 308C188 264.922 222.922 230 266 230H206C215.941 230 224 238.059 224 248V322H188V308Z" fill="#18C5F4"/>
  <path d="M224 242H286C316.928 242 342 267.072 342 298V322H224V242Z" fill="url(#accent)"/>
  <rect x="212" y="248" width="18" height="116" rx="9" fill="#0B1524"/>
  <rect x="282" y="248" width="18" height="116" rx="9" fill="#0B1524"/>
  <rect x="202" y="308" width="118" height="18" rx="9" fill="#0B1524"/>

  <circle cx="476" cy="188" r="42" fill="#E4B89A"/>
  <path d="M434 178C434 154.804 452.804 136 476 136C499.196 136 518 154.804 518 178V188H434V178Z" fill="#101823"/>
  <rect x="420" y="230" width="116" height="120" rx="24" fill="#0F253B"/>
  <rect x="448" y="214" width="60" height="34" rx="12" fill="#F8FBFF"/>
  <rect x="442" y="250" width="72" height="58" rx="18" fill="#F0B53A"/>
  <rect x="462" y="308" width="32" height="60" rx="16" fill="#0F253B"/>

  <rect x="388" y="146" width="24" height="118" rx="12" fill="#D7F7FF"/>
  <rect x="398" y="136" width="4" height="24" rx="2" fill="#D7F7FF"/>
  <rect x="382" y="146" width="36" height="12" rx="6" fill="#D7F7FF"/>

  <rect x="136" y="370" width="156" height="10" rx="5" fill="#1B3D61"/>
  <rect x="308" y="370" width="110" height="10" rx="5" fill="#16486A"/>
  <rect x="440" y="370" width="124" height="10" rx="5" fill="#12395A"/>
</svg>
